<?xml version="1.0" encoding="UTF-8" standalone="no"?>
<!-- Generator: Adobe Illustrator 19.0.0, SVG Export Plug-In . SVG Version: 6.00 Build 0)  -->

<svg
   xmlns:dc="http://purl.org/dc/elements/1.1/"
   xmlns:cc="http://creativecommons.org/ns#"
   xmlns:rdf="http://www.w3.org/1999/02/22-rdf-syntax-ns#"
   xmlns:svg="http://www.w3.org/2000/svg"
   xmlns="http://www.w3.org/2000/svg"
   xmlns:sodipodi="http://sodipodi.sourceforge.net/DTD/sodipodi-0.dtd"
   xmlns:inkscape="http://www.inkscape.org/namespaces/inkscape"
   version="1.1"
   id="Layer_1"
   x="0px"
   y="0px"
   viewBox="0 0 490 490"
   style="enable-background:new 0 0 490 490;"
   xml:space="preserve"
   sodipodi:docname="connection-1.svg"
   inkscape:version="0.92.1 r"><metadata
     id="metadata50"><rdf:RDF><cc:Work
         rdf:about=""><dc:format>image/svg+xml</dc:format><dc:type
           rdf:resource="http://purl.org/dc/dcmitype/StillImage" /></cc:Work></rdf:RDF></metadata><defs
     id="defs48" /><sodipodi:namedview
     pagecolor="#ffffff"
     bordercolor="#666666"
     borderopacity="1"
     objecttolerance="10"
     gridtolerance="10"
     guidetolerance="10"
     inkscape:pageopacity="0"
     inkscape:pageshadow="2"
     inkscape:window-width="1366"
     inkscape:window-height="708"
     id="namedview46"
     showgrid="false"
     inkscape:zoom="0.48163265"
     inkscape:cx="-105.88983"
     inkscape:cy="245"
     inkscape:window-x="0"
     inkscape:window-y="32"
     inkscape:window-maximized="1"
     inkscape:current-layer="Layer_1" /><circle
     id="XMLID_4231_"
     style="fill:#3c92ca;fill-opacity:1"
     cx="72"
     cy="376.64999"
     r="63" /><circle
     id="XMLID_4230_"
     style="fill:#a7a9ac"
     cx="418"
     cy="376.64999"
     r="63" /><circle
     id="XMLID_4216_"
     style="fill:#3c92ca;fill-opacity:1"
     cx="241.8"
     cy="75.150002"
     r="63" /><path
     d="m 339.3,454.05 c -2.2,-4.5 -7.6,-6.4 -12.1,-4.2 -25.9,12.5 -53.8,18.9 -82.8,18.9 -43.9,0 -86.2,-15.1 -120.1,-42.6 12.2,-12.9 19.7,-30.3 19.7,-49.4 0,-39.7 -32.3,-72 -72,-72 -39.7,0 -72,32.3 -72,72 0,39.7 32.3,72 72,72 13.9,0 27,-4 38,-10.9 37.6,31.7 85,49 134.4,49 31.8,0 62.3,-7 90.7,-20.7 4.5,-2.2 6.4,-7.6 4.2,-12.1 z M 18.1,376.65 c 0,-29.7 24.2,-53.9 53.9,-53.9 29.7,0 53.9,24.2 53.9,53.9 0,29.7 -24.2,53.9 -53.9,53.9 -29.7,0 -53.9,-24.2 -53.9,-53.9 z"
     id="path5"
     inkscape:connector-curvature="0" /><path
     d="m 36.1,268.45 c -0.2,5 3.7,9.2 8.8,9.4 0.1,0 0.2,0 0.3,0 4.9,0 8.9,-3.9 9.1,-8.8 2.2,-64.9 36.7,-123.6 92.2,-157.1 8.7,-5.2 17.8,-9.8 27.1,-13.6 9.7,28.3 36.6,48.8 68.1,48.8 39.7,0 72,-32.3 72,-72 0,-39.7 -32.3,-72 -72,-72 -39.7,0 -72,32.3 -72,72 0,1.8 0.1,3.5 0.2,5.2 -11.3,4.4 -22.4,9.8 -32.8,16.1 -60.8,36.6 -98.6,100.9 -101,172 z M 241.8,21.25 c 29.7,0 53.9,24.2 53.9,53.9 0,29.7 -24.2,53.8 -53.9,53.8 -29.7,0 -53.9,-24.2 -53.9,-53.9 0,-29.7 24.1,-53.8 53.9,-53.8 z"
     id="path7"
     inkscape:connector-curvature="0" /><path
     d="m 418,304.65 c -39.7,0 -72,32.3 -72,72 0,39.7 32.3,72 72,72 39.7,0 72,-32.3 72,-72 0,-27.9 -16,-52.2 -39.3,-64.1 2,-11.8 3.1,-23.8 3.1,-35.8 0,-71 -35.6,-136.5 -95.2,-175.3 -4.2,-2.7 -9.8,-1.5 -12.5,2.7 -2.7,4.2 -1.5,9.8 2.7,12.5 54.5,35.4 87,95.2 87,160.1 0,9.9 -0.8,19.8 -2.3,29.6 -5,-1.1 -10.2,-1.7 -15.5,-1.7 z m 53.9,72 c 0,29.7 -24.2,53.9 -53.9,53.9 -29.7,0 -53.9,-24.2 -53.9,-53.9 0,-29.7 24.2,-53.9 53.9,-53.9 29.7,0 53.9,24.2 53.9,53.9 z"
     id="path9"
     inkscape:connector-curvature="0" /><g
     id="g15" /><g
     id="g17" /><g
     id="g19" /><g
     id="g21" /><g
     id="g23" /><g
     id="g25" /><g
     id="g27" /><g
     id="g29" /><g
     id="g31" /><g
     id="g33" /><g
     id="g35" /><g
     id="g37" /><g
     id="g39" /><g
     id="g41" /><g
     id="g43" /></svg>