<?xml version="1.0" encoding="UTF-8" standalone="no"?>
<!-- Generator: Adobe Illustrator 19.0.0, SVG Export Plug-In . SVG Version: 6.00 Build 0)  -->

<svg
   xmlns:dc="http://purl.org/dc/elements/1.1/"
   xmlns:cc="http://creativecommons.org/ns#"
   xmlns:rdf="http://www.w3.org/1999/02/22-rdf-syntax-ns#"
   xmlns:svg="http://www.w3.org/2000/svg"
   xmlns="http://www.w3.org/2000/svg"
   xmlns:sodipodi="http://sodipodi.sourceforge.net/DTD/sodipodi-0.dtd"
   xmlns:inkscape="http://www.inkscape.org/namespaces/inkscape"
   version="1.1"
   id="Layer_1"
   x="0px"
   y="0px"
   viewBox="0 0 489.7 489.7"
   style="enable-background:new 0 0 489.7 489.7;"
   xml:space="preserve"
   sodipodi:docname="head.svg"
   inkscape:version="0.92.1 r"><metadata
     id="metadata53"><rdf:RDF><cc:Work
         rdf:about=""><dc:format>image/svg+xml</dc:format><dc:type
           rdf:resource="http://purl.org/dc/dcmitype/StillImage" /></cc:Work></rdf:RDF></metadata><defs
     id="defs51" /><sodipodi:namedview
     pagecolor="#ffffff"
     bordercolor="#666666"
     borderopacity="1"
     objecttolerance="10"
     gridtolerance="10"
     guidetolerance="10"
     inkscape:pageopacity="0"
     inkscape:pageshadow="2"
     inkscape:window-width="1366"
     inkscape:window-height="708"
     id="namedview49"
     showgrid="false"
     inkscape:zoom="0.4819277"
     inkscape:cx="79.887502"
     inkscape:cy="244.85001"
     inkscape:window-x="0"
     inkscape:window-y="32"
     inkscape:window-maximized="1"
     inkscape:current-layer="Layer_1" /><path
     inkscape:connector-curvature="0"
     d="m 209.146,287.9 c -17.2,13.4 -37,16.6 -49.9,14.6 -4.2,-0.7 -5.1,-6.4 -1.3,-8.3 12.3,-6.1 19.6,-19.5 23.8,-28.9 -39.2,-44.2 -37.6,-111.9 4.7,-154.3 44,-44 115.3,-44 159.3,0 44,44 44,115.3 0,159.3 -37,37.2 -93.5,43 -136.6,17.6 z"
     style="fill:#3c92ca;fill-opacity:1"
     id="XMLID_787_" /><path
     d="m 265.946,0 c -28.8,0 -56.6,6.2 -82.5,18.5 -67.7,31.5 -111.6,100.1 -111.6,174.9 v 28.3 l -36.5,69.6 c -6,11.5 -6.4,23.2 -1,32.1 5.4,8.9 15.9,14 28.9,14 h 8.6 v 59 c 0,26.3 21.4,47.7 47.7,47.7 0.4,0 0.9,0 1.3,-0.1 l 42.7,-6.4 0.1,43 c 0,5 4.1,9.1 9.1,9.1 h 217.6 c 5,0 9.1,-4.1 9.1,-9.1 v -148 c 38,-36.3 59.7,-87 59.7,-139.6 -0.1,-106.4 -86.7,-193 -193.2,-193 z m 118.3,322.1 c -1.9,1.7 -2.9,4.1 -2.9,6.7 v 142.9 h -199.5 l -0.1,-44.5 c 0,-2.6 -1.2,-5.1 -3.1,-6.9 -2,-1.7 -4.6,-2.5 -7.2,-2.1 l -52.4,7.8 c -16,-0.3 -29,-13.5 -29,-29.6 v -68.1 c 0,-5 -4.1,-9.1 -9.1,-9.1 h -17.6 c -6.5,0 -11.4,-1.9 -13.4,-5.3 -2,-3.4 -1.5,-8.6 1.5,-14.3 l 37.5,-71.6 c 0.7,-1.3 1,-2.7 1,-4.2 v -30.6 c 0,-67.7 39.7,-129.9 101.2,-158.5 23.5,-11.1 48.6,-16.8 74.8,-16.8 96.5,0 175,78.5 175,175 0,49.1 -20.7,96.1 -56.7,129.2 z"
     id="path4"
     inkscape:connector-curvature="0" /><path
     d="m 266.146,69.1 c -32.5,0 -63.1,12.7 -86.1,35.6 -44,44 -47.5,114 -9,162.1 -5,9.7 -10.7,16.2 -17.1,19.4 -5.3,2.6 -8.2,8.2 -7.4,14.1 0.9,5.8 5.4,10.4 11.2,11.3 2.8,0.4 5.7,0.7 8.8,0.7 14.6,0 30,-4.9 43.1,-13.5 17.3,9.1 36.7,13.8 56.4,13.8 32.5,0 63.1,-12.7 86.1,-35.6 47.5,-47.5 47.5,-124.7 0,-172.1 -22.9,-23.2 -53.5,-35.8 -86,-35.8 z m 73.2,194.9 c -19.6,19.6 -45.6,30.3 -73.2,30.3 -18.5,0 -36.6,-4.9 -52.5,-14.2 -1.4,-0.8 -3,-1.3 -4.6,-1.3 -2,0 -3.9,0.6 -5.6,1.9 -10.8,8.4 -21.6,11.5 -29.2,12.6 6,-6 11.2,-14.1 15.7,-24.4 1.4,-3.2 0.8,-7 -1.5,-9.6 -36.2,-40.9 -34.3,-103.2 4.4,-141.8 19.6,-19.6 45.6,-30.3 73.2,-30.3 27.6,0 53.7,10.8 73.2,30.3 40.5,40.4 40.5,106.1 0.1,146.5 z"
     id="path6"
     inkscape:connector-curvature="0" /><path
     d="m 266.146,181.7 c -2.4,0 -4.7,1 -6.4,2.7 -1.7,1.7 -2.6,4 -2.6,6.4 0,2.4 1,4.7 2.6,6.4 1.7,1.7 4,2.7 6.4,2.7 2.4,0 4.7,-1 6.4,-2.7 1.7,-1.7 2.6,-4 2.6,-6.4 0,-2.4 -1,-4.7 -2.6,-6.4 -1.7,-1.7 -4,-2.7 -6.4,-2.7 z"
     id="path8"
     inkscape:connector-curvature="0" /><path
     d="m 299.846,181.7 c -2.4,0 -4.7,1 -6.4,2.7 -1.7,1.7 -2.6,4 -2.6,6.4 0,2.4 1,4.7 2.6,6.4 1.7,1.7 4,2.7 6.4,2.7 2.4,0 4.7,-1 6.4,-2.7 1.7,-1.7 2.6,-4 2.6,-6.4 0,-2.4 -1,-4.7 -2.6,-6.4 -1.6,-1.7 -4,-2.7 -6.4,-2.7 z"
     id="path10"
     inkscape:connector-curvature="0" /><path
     d="m 232.446,181.7 c -2.4,0 -4.7,1 -6.4,2.7 -1.7,1.7 -2.6,4 -2.6,6.4 0,2.4 0.9,4.7 2.6,6.4 1.7,1.7 4,2.7 6.4,2.7 2.4,0 4.7,-1 6.4,-2.7 1.7,-1.7 2.6,-4 2.6,-6.4 0,-2.4 -1,-4.7 -2.6,-6.4 -1.7,-1.7 -4.1,-2.7 -6.4,-2.7 z"
     id="path12"
     inkscape:connector-curvature="0" /><g
     id="g18" /><g
     id="g20" /><g
     id="g22" /><g
     id="g24" /><g
     id="g26" /><g
     id="g28" /><g
     id="g30" /><g
     id="g32" /><g
     id="g34" /><g
     id="g36" /><g
     id="g38" /><g
     id="g40" /><g
     id="g42" /><g
     id="g44" /><g
     id="g46" /></svg>